<?xml version="1.0" encoding="UTF-8"?>
<!DOCTYPE svg PUBLIC "-//W3C//DTD SVG 1.1//EN" "http://www.w3.org/Graphics/SVG/1.1/DTD/svg11.dtd">
<!-- Creator: CorelDRAW X7 -->
<svg xmlns="http://www.w3.org/2000/svg" xml:space="preserve" width="80480px" height="80508px" version="1.1" style="shape-rendering:geometricPrecision; text-rendering:geometricPrecision; image-rendering:optimizeQuality; fill-rule:evenodd; clip-rule:evenodd"
viewBox="0 0 80480 80508"
 xmlns:xlink="http://www.w3.org/1999/xlink">
 <defs>
  <style type="text/css">
   <![CDATA[
    .str1 {stroke:#F0F0F0;stroke-width:3.45118}
    .str2 {stroke:#2B2A29;stroke-width:7.38189}
    .str0 {stroke:black;stroke-width:13.774;stroke-linecap:round;stroke-linejoin:round}
    .fil0 {fill:none}
    .fil1 {fill:black}
    .fil4 {fill:#009846}
    .fil2 {fill:#071FB3}
    .fil3 {fill:white}
   ]]>
  </style>
 </defs>
 <g id="Camada_x0020_1">
  <metadata id="CorelCorpID_0Corel-Layer"/>
  <path class="fil0 str0" d="M16310 5430c-66,12461 -562,26441 4329,37745 10643,23433 20724,32093 20724,32093 8956,-8924 15600,-20657 20756,-32093 4759,-11502 4362,-25284 4296,-37745m-25052 1653l0 0"/>
  <line class="fil0 str1" x1="35678" y1="46315" x2="31183" y2= "46546" />
  <line class="fil0 str2" x1="16310" y1="5430" x2="66415" y2= "5430" />
  <line class="fil0 str2" x1="16343" y1="18750" x2="66382" y2= "18783" />
  <path class="fil1 str2" d="M16343 18750l50039 33c133,-4528 66,-9023 33,-13353l-50105 0c0,4330 -99,8825 33,13320l0 0z"/>
  <path class="fil1 str2" d="M66382 18783l-50039 -33c198,8527 1124,17054 4296,24425 10643,23433 20724,32093 20724,32093 8956,-8924 15600,-20657 20756,-32093 3106,-7503 4032,-15964 4263,-24392z"/>
  <path class="fil2 str2" d="M66382 18783l-50039 -33c198,8527 1124,17054 4296,24425 10643,23433 20724,32093 20724,32093 8956,-8924 15600,-20657 20756,-32093 3106,-7503 4032,-15964 4263,-24392z"/>
  <g id="_2788549235488">
   <polygon class="fil3" points="41363,6951 40503,9991 37727,8471 39280,11214 36240,12107 39280,12966 37727,15742 40503,14189 41363,17230 42255,14189 44998,15742 43478,12966 46519,12107 43478,11214 44998,8471 42255,9991 "/>
  </g>
  <path class="fil3" d="M65490 23344c-33,0 -66,33 -99,66 -33,0 -298,265 -562,529 -298,264 -694,529 -859,694 -133,132 -331,595 -364,694 -33,397 -66,595 -364,926 33,-331 133,-794 133,-1190 33,-265 -66,-198 -265,66 -165,198 -264,363 -297,661 -66,430 -66,562 -99,925 0,232 -199,397 -265,463 0,-33 0,-198 33,-330 33,-331 33,-562 33,-1223 0,-331 -165,-265 -330,66 -132,198 -265,429 -298,727 -33,430 0,859 -33,1190 0,264 -198,429 -297,462 0,-33 0,-264 0,-429 0,-331 0,-992 0,-1454 0,-397 -165,-298 -331,33 -330,561 -396,859 -429,1156 -33,430 0,860 0,1190 0,298 -265,430 -364,496 0,-66 33,-264 33,-397 0,-363 0,-1454 0,-1950 0,-363 -165,-264 -330,0 -331,562 -496,959 -562,1422 -66,595 -66,1090 -66,1421 -33,297 -298,463 -397,496 0,-33 33,-232 33,-496 33,-860 -33,-1256 0,-2380 33,-363 -132,-231 -397,33 -396,529 -561,992 -628,1454 -99,595 -99,1521 -132,1851 0,364 -297,529 -396,595 0,-33 33,-231 33,-496 33,-859 33,-1817 66,-2941 0,-364 -165,-265 -364,0 -462,562 -826,1355 -892,2082 -66,595 -132,1487 -132,1818 -33,363 -364,562 -463,595 0,-132 99,-727 99,-992 33,-859 99,-1983 165,-3073 33,-364 -132,-298 -363,-67 -628,761 -992,1620 -1124,2479 -66,595 -165,1785 -165,2116 -33,396 -397,528 -463,594 0,-66 0,-694 33,-958 33,-859 132,-2479 198,-3570 0,-363 -132,-330 -363,-66 -661,727 -1058,1521 -1223,2380 -66,562 -165,2214 -165,2578 0,463 -463,628 -562,661 0,-99 198,-3503 264,-4991 33,-396 -132,-363 -330,-99 -661,727 -1190,2049 -1355,3041 -99,562 -166,2016 -166,2347 0,495 -495,694 -661,760 33,-66 66,-760 133,-1818 66,-1289 165,-3107 198,-3933 33,-397 -132,-364 -364,-99 -793,859 -1322,2115 -1421,2941 -66,562 -231,2942 -231,3272 0,430 -595,595 -694,628 0,-66 297,-5618 330,-6346 33,-396 -99,-363 -396,-99 -761,760 -1521,2016 -1719,3471 -66,528 -231,3040 -231,3404 0,397 -595,595 -695,661 0,-66 100,-6148 100,-6875 0,-396 -133,-363 -397,-99 -760,760 -1653,2082 -1884,3801 -66,562 -264,3470 -264,3834 0,364 -529,595 -661,628 0,-33 99,-6809 99,-7536 0,-396 -165,-396 -430,-99 -727,859 -1785,2314 -1917,4528 -66,562 -231,3669 -198,3999 33,331 -430,595 -562,661 0,-66 -330,-7701 -364,-8329 0,-396 -231,-363 -462,-66 -628,926 -1554,2149 -1818,4561 -66,562 -33,4760 -33,5123 0,364 -529,661 -661,727 0,-99 -397,-9023 -397,-9650 0,-265 -231,-397 -463,-67 -661,893 -1454,2182 -1784,4033 -298,1553 -199,3404 -132,4891 66,992 165,1884 231,2380 33,397 -463,727 -595,793 0,-66 -1091,-9915 -1190,-10675 0,-232 -264,-364 -496,-33 -562,859 -1355,2611 -1586,3933 -364,2247 -132,3470 0,5056 99,1058 463,3173 595,3801 33,265 -265,529 -397,628l-3107 3041 0 3074 33 0c0,0 1157,-1421 2347,-2810 1157,-1322 2314,-2544 2446,-2644 330,-297 727,-231 1024,-99 1422,562 4595,2115 6181,2413 1256,264 2710,364 3735,264 363,-66 396,-297 198,-429 -1454,-926 -7899,-5123 -7998,-5189 99,-133 562,-529 958,-331 1950,1025 3239,1983 5057,2743 1289,562 3074,959 4198,992 396,0 363,-198 132,-364 -694,-495 -6478,-5387 -6908,-5684 132,-100 562,-397 925,-166 331,199 2512,1950 2975,2248 2281,1388 4594,1685 5222,1718 397,0 496,-132 199,-396 -331,-265 -2975,-2545 -4661,-4065 -826,-761 -1421,-1190 -1520,-1289 132,-67 595,-331 892,-100 331,232 2049,1686 2942,2182 1950,1057 3999,1388 4825,1355 298,0 430,-132 133,-364 -331,-264 -2479,-2049 -3967,-3239 -991,-793 -1817,-1289 -1917,-1322 133,-99 661,-363 959,-132 264,198 2280,1620 3074,2016 1487,760 3007,1025 4230,1058 463,0 496,-132 199,-364 -397,-330 -3074,-2313 -3900,-2941 -794,-595 -1455,-926 -1554,-992 132,-66 562,-297 926,-99 330,231 2313,1454 2842,1686 1322,528 2347,727 3305,760 463,0 595,-132 231,-364 -859,-529 -2280,-1619 -3239,-2247 -826,-529 -1421,-793 -1520,-827 99,-66 463,-264 826,-99 298,166 1851,992 2876,1355 859,298 1950,496 3107,496 396,0 495,-99 132,-330 -694,-397 -2413,-1422 -3570,-2050 -462,-264 -958,-429 -1057,-462 99,-99 528,-331 958,-66 265,198 1917,925 2446,1090 892,265 2347,397 2842,331 331,-33 397,-132 66,-331 -628,-330 -2710,-1454 -3073,-1652 -595,-265 -992,-397 -1124,-463 132,-66 430,-297 793,-132 331,165 1752,826 2512,958 826,166 1785,199 2578,66 397,-99 529,-198 165,-363 -991,-397 -2446,-1025 -3239,-1355 -198,-99 -595,-265 -760,-331 99,-66 331,-231 661,-132 331,132 1487,529 2049,694 661,165 1950,99 2677,-66 331,-66 463,-198 100,-330 -1025,-364 -1752,-595 -2578,-893 -199,-66 -827,-264 -1157,-330 99,-100 330,-298 661,-199 330,100 859,199 1421,331 760,165 1620,165 2446,-33 363,-99 529,-265 165,-364 -1190,-297 -1917,-628 -3008,-859 33,-66 166,-165 463,-132 331,33 1025,231 1752,231 496,0 1091,-132 1685,-363 232,-100 364,-265 0,-331 -1024,-132 -1487,-264 -2082,-331 -264,-33 -462,-66 -496,-66 34,-66 199,-198 463,-198 331,0 826,132 1421,66 331,-33 860,-165 1389,-429 297,-133 396,-298 0,-298 -463,-33 -1322,-99 -1653,-99 -132,0 -364,0 -463,0 33,-66 199,-231 496,-265 331,0 892,0 1355,-66 265,-33 463,-66 992,-462 264,-199 396,-364 33,-364 -463,0 -860,33 -1223,33 -132,0 -430,33 -496,33 33,-66 132,-198 364,-231 363,-33 727,-33 1123,-165 265,-100 496,-232 661,-397 298,-231 298,-397 -99,-331 -628,100 -429,67 -760,133 -132,0 -430,66 -496,99 33,-66 132,-198 331,-265 330,-66 330,-33 727,-165 198,-66 463,-264 628,-430 264,-231 297,-363 33,-264 -364,66 -760,231 -1091,331 166,-199 265,-298 628,-463 397,-165 628,-397 694,-694 33,-99 133,-529 232,-893 99,-330 198,-595 231,-661 0,-66 0,-132 -66,-132l0 0 0 0z"/>
  <g id="_2788549236384">
   <path class="fil4" d="M81057 48232c0,0 -66,33 -99,66 -33,33 -265,264 -562,529 -297,264 -694,528 -859,694 -133,132 -331,595 -331,694 -33,396 -99,595 -396,925 33,-330 132,-793 165,-1157 0,-297 -99,-231 -298,33 -132,199 -264,397 -297,662 -33,429 -66,594 -99,925 0,231 -199,397 -265,463 0,-33 33,-166 33,-331 33,-330 33,-562 33,-1223 0,-330 -165,-264 -330,66 -132,199 -231,463 -298,727 -33,430 0,860 0,1190 -33,265 -231,430 -330,463 0,-33 0,-264 0,-397 0,-363 0,-1024 0,-1487 0,-363 -132,-264 -331,33 -297,562 -396,860 -429,1157 -33,430 0,859 0,1190 0,297 -265,463 -364,496 0,-33 33,-265 33,-397 0,-331 0,-1454 0,-1917 0,-397 -165,-297 -330,0 -331,529 -496,925 -562,1388 -66,595 -66,1091 -66,1421 0,298 -298,463 -397,496 0,-33 33,-231 33,-463 33,-859 0,-1289 33,-2379 0,-397 -165,-265 -396,33 -430,496 -595,991 -661,1454 -100,562 -100,1487 -133,1818 0,363 -297,529 -396,595 0,-33 33,-232 33,-496 33,-859 33,-1818 66,-2942 0,-363 -132,-264 -364,0 -462,562 -793,1389 -892,2083 -66,595 -132,1487 -132,1817 -33,397 -364,562 -463,595 33,-132 99,-727 99,-991 33,-859 99,-1983 165,-3041 34,-396 -132,-330 -330,-66 -661,727 -1025,1620 -1157,2479 -66,562 -165,1752 -165,2115 -33,364 -364,529 -463,562 0,-66 33,-694 33,-958 33,-860 132,-2479 199,-3570 0,-364 -133,-330 -364,-66 -628,760 -1058,1553 -1190,2413 -99,528 -198,2214 -198,2545 0,462 -463,628 -562,661 0,-100 198,-3504 297,-4991 0,-397 -165,-364 -363,-99 -661,727 -1190,2049 -1355,3074 -99,528 -165,1983 -165,2313 0,496 -496,694 -628,760 0,-66 33,-727 99,-1784 99,-1323 165,-3140 231,-3934 0,-429 -165,-363 -397,-132 -760,893 -1322,2149 -1421,2975 -66,529 -231,2908 -231,3239 0,430 -595,595 -694,628 0,-66 297,-5619 330,-6313 33,-430 -99,-397 -396,-99 -760,760 -1521,1983 -1686,3437 -99,529 -264,3074 -264,3404 0,397 -562,595 -694,662 0,-67 99,-6148 99,-6875 33,-397 -99,-364 -397,-99 -760,760 -1652,2082 -1884,3801 -66,561 -264,3503 -264,3834 0,363 -529,594 -661,661 0,-67 99,-6842 99,-7569 0,-397 -165,-397 -430,-99 -694,859 -1784,2313 -1917,4561 -33,529 -198,3635 -198,3966 33,330 -397,595 -562,694 0,-99 -330,-7701 -363,-8329 0,-430 -232,-397 -430,-99 -661,925 -1587,2148 -1851,4594 -66,529 -33,4759 -33,5090 0,363 -529,661 -628,727 -33,-99 -430,-9023 -430,-9651 0,-264 -231,-397 -462,-66 -661,925 -1455,2181 -1785,4032 -298,1554 -198,3438 -132,4925 66,958 165,1851 231,2346 33,397 -463,728 -595,827 0,-99 -1091,-9949 -1157,-10676 -33,-264 -297,-396 -529,-66 -561,859 -1355,2611 -1553,3933 -397,2248 -165,3471 -33,5057 99,1058 463,3206 595,3801 33,264 -264,529 -364,661l-3139 3008 0 3106 66 0c0,0 1123,-1454 2313,-2842 1157,-1289 2347,-2545 2446,-2644 331,-298 727,-231 1025,-99 1421,562 4594,2115 6180,2446 1256,231 2710,330 3735,231 364,-33 397,-264 198,-430 -1454,-925 -7899,-5123 -7998,-5189 99,-132 562,-529 958,-297 1983,1024 3239,1983 5057,2743 1289,529 3074,925 4198,958 396,0 363,-198 132,-363 -694,-463 -6445,-5387 -6908,-5652 132,-99 595,-429 926,-198 330,198 2512,1950 2974,2247 2281,1389 4627,1686 5255,1719 364,33 463,-132 166,-397 -331,-264 -2975,-2511 -4661,-4065 -826,-760 -1421,-1190 -1520,-1256 132,-99 595,-363 892,-132 331,231 2083,1686 2942,2181 1950,1091 3999,1388 4825,1388 331,0 430,-165 133,-396 -331,-265 -2479,-2049 -3966,-3239 -992,-793 -1818,-1289 -1917,-1322 132,-99 661,-364 958,-132 264,198 2314,1619 3074,2016 1487,760 3007,1024 4263,1057 430,0 463,-99 166,-330 -397,-331 -3074,-2347 -3900,-2975 -761,-562 -1422,-925 -1554,-991 132,-66 595,-298 926,-99 330,231 2313,1487 2842,1685 1322,529 2347,727 3305,760 463,0 595,-132 232,-330 -860,-562 -2281,-1653 -3206,-2248 -827,-562 -1455,-826 -1554,-859 99,-66 463,-264 826,-99 298,165 1851,991 2876,1355 859,297 1950,496 3140,496 363,0 463,-99 99,-298 -694,-429 -2380,-1454 -3537,-2082 -495,-231 -958,-430 -1090,-463 99,-66 529,-330 958,-66 298,198 1917,926 2446,1091 925,297 2347,397 2842,330 331,-33 397,-132 67,-330 -595,-331 -2711,-1454 -3074,-1620 -595,-297 -992,-429 -1091,-462 99,-100 397,-331 793,-166 298,166 1719,827 2512,959 793,165 1752,198 2545,66 397,-99 529,-198 165,-364 -991,-396 -2445,-1024 -3239,-1355 -198,-99 -595,-264 -760,-330 99,-66 364,-232 661,-99 331,99 1488,528 2049,661 695,165 1950,99 2678,-66 330,-67 462,-199 99,-331 -1025,-330 -1752,-595 -2578,-892 -199,-66 -827,-232 -1124,-331 66,-99 297,-264 628,-198 330,99 859,231 1421,363 760,133 1620,133 2446,-66 364,-99 529,-264 165,-363 -1190,-298 -1917,-595 -3007,-860 33,-66 165,-165 462,-132 364,33 1025,265 1785,232 463,0 1058,-133 1653,-364 231,-99 363,-264 0,-297 -1025,-133 -1488,-265 -2083,-364 -264,-33 -462,-66 -495,-66 66,-66 198,-198 462,-198 331,0 827,132 1422,66 330,0 859,-166 1388,-430 297,-132 396,-297 33,-297 -496,-33 -1355,-100 -1686,-100 -132,0 -363,0 -430,0 34,-33 166,-231 463,-264 331,0 926,0 1355,-33 265,-66 496,-99 992,-496 264,-198 396,-363 33,-363 -463,33 -859,33 -1190,33 -165,0 -463,33 -529,33 33,-33 132,-166 397,-232 330,-33 694,-33 1124,-165 264,-99 462,-231 628,-397 297,-231 297,-396 -100,-330 -628,99 -396,66 -760,132 -132,33 -429,99 -496,99 33,-66 133,-198 364,-231 297,-99 297,-66 727,-198 165,-66 430,-232 595,-430 264,-231 298,-331 33,-264 -363,66 -760,231 -1091,330 166,-165 265,-297 628,-463 397,-165 628,-396 694,-694 34,-99 133,-495 232,-892 99,-298 198,-595 231,-661 0,-66 0,-132 -66,-132l0 0 0 0z"/>
   <path class="fil4" d="M1602 48232c33,0 99,33 132,66 33,33 265,264 562,529 297,264 694,528 859,694 133,132 331,595 331,694 33,396 99,595 363,925 -33,-330 -99,-793 -132,-1157 0,-297 99,-231 298,33 132,199 264,397 297,662 33,429 66,594 66,925 33,231 232,397 298,463 0,-33 -33,-166 -33,-331 -33,-330 -33,-562 -33,-1223 0,-330 165,-264 330,66 132,199 231,463 265,727 66,430 33,860 33,1190 0,265 231,430 330,463 0,-33 0,-264 0,-397 -33,-363 0,-1024 0,-1487 0,-363 132,-264 331,33 297,562 363,860 396,1157 66,430 0,859 33,1190 0,297 265,463 331,496 0,-33 0,-265 0,-397 0,-331 0,-1454 0,-1917 0,-397 165,-297 330,0 298,529 463,925 529,1388 99,595 99,1091 99,1421 0,298 298,463 397,496 -33,-33 -33,-231 -33,-463 -33,-859 0,-1289 -33,-2379 0,-397 165,-265 396,33 430,496 595,991 661,1454 67,562 100,1487 100,1818 33,363 297,529 429,595 0,-33 -33,-232 -33,-496 -33,-859 -33,-1818 -66,-2942 -33,-363 132,-264 364,0 429,562 793,1389 892,2083 66,595 132,1487 132,1817 33,397 331,562 463,595 -33,-132 -99,-727 -132,-991 -33,-859 -66,-1983 -132,-3041 -34,-396 99,-330 330,-66 661,727 1025,1620 1124,2479 99,562 198,1752 198,2115 33,364 364,529 463,562 0,-66 -33,-694 -33,-958 -33,-860 -132,-2479 -199,-3570 -33,-364 133,-330 364,-66 628,760 1058,1553 1190,2413 99,528 198,2214 198,2545 0,462 463,628 562,661 -33,-100 -198,-3504 -297,-4991 0,-397 132,-364 363,-99 661,727 1190,2049 1355,3074 66,528 165,1983 165,2313 0,496 496,694 628,760 0,-66 -33,-727 -99,-1784 -99,-1323 -165,-3140 -231,-3934 0,-429 165,-363 397,-132 760,893 1322,2149 1421,2975 66,529 231,2908 231,3239 0,430 595,595 694,628 0,-66 -297,-5619 -330,-6313 -33,-430 99,-397 363,-99 793,760 1521,1983 1719,3437 66,529 264,3074 264,3404 0,397 562,595 694,662 0,-67 -99,-6148 -132,-6875 0,-397 132,-364 430,-99 760,760 1652,2082 1884,3801 66,561 264,3503 264,3834 0,363 529,594 661,661 0,-67 -99,-6842 -99,-7569 -33,-397 165,-397 430,-99 694,859 1751,2313 1917,4561 33,529 198,3635 165,3966 0,330 430,595 595,694 0,-99 330,-7701 330,-8329 33,-430 232,-397 463,-99 661,925 1587,2148 1851,4594 33,529 33,4759 33,5090 0,363 529,661 628,727 0,-99 430,-9023 430,-9618 0,-297 231,-430 462,-99 661,925 1455,2181 1785,4032 298,1554 198,3438 132,4925 -66,958 -165,1851 -231,2346 -33,397 463,728 595,827 0,-99 1091,-9949 1157,-10676 33,-264 297,-396 529,-66 561,859 1355,2611 1553,3933 397,2281 165,3471 33,5057 -99,1058 -496,3206 -595,3801 -33,264 231,529 364,661l3106 3008 0 3106 -33 0c0,0 -1123,-1454 -2313,-2842 -1157,-1289 -2347,-2545 -2446,-2644 -364,-298 -727,-231 -1025,-99 -1421,562 -4594,2115 -6180,2446 -1256,231 -2743,330 -3768,231 -330,-33 -364,-264 -165,-430 1454,-925 7899,-5123 7998,-5189 -99,-132 -562,-529 -958,-297 -1983,1024 -3239,1983 -5057,2743 -1289,529 -3074,925 -4198,958 -396,0 -363,-198 -132,-363 661,-463 6445,-5387 6908,-5652 -132,-99 -595,-430 -926,-198 -330,198 -2511,1950 -2974,2247 -2281,1388 -4627,1686 -5255,1719 -397,33 -463,-132 -166,-397 298,-264 2942,-2512 4661,-4065 826,-760 1421,-1190 1520,-1256 -132,-99 -595,-363 -892,-132 -331,231 -2083,1686 -2942,2181 -1950,1091 -3999,1388 -4825,1388 -331,0 -430,-165 -133,-396 331,-265 2479,-2049 3966,-3239 992,-793 1818,-1289 1917,-1322 -132,-66 -661,-364 -958,-132 -264,198 -2314,1619 -3107,2016 -1454,760 -2974,1024 -4230,1057 -430,0 -463,-99 -166,-330 397,-331 3074,-2347 3867,-2975 794,-562 1455,-925 1587,-991 -132,-66 -595,-298 -926,-99 -330,231 -2313,1487 -2842,1685 -1322,529 -2347,727 -3305,760 -463,0 -595,-132 -265,-330 860,-562 2314,-1653 3239,-2248 827,-562 1455,-826 1554,-859 -99,-66 -463,-264 -826,-99 -298,165 -1851,991 -2876,1355 -859,330 -1950,496 -3140,496 -396,33 -462,-99 -132,-298 727,-429 2413,-1454 3570,-2082 462,-231 958,-430 1090,-463 -99,-66 -529,-330 -958,-66 -298,198 -1917,926 -2446,1091 -925,297 -2347,396 -2842,330 -331,-33 -430,-132 -67,-330 595,-331 2711,-1454 3074,-1620 595,-297 992,-429 1091,-462 -99,-100 -430,-331 -793,-166 -298,166 -1719,827 -2512,959 -793,165 -1752,231 -2545,66 -430,-99 -529,-198 -198,-364 1024,-396 2478,-1024 3239,-1355 231,-99 628,-264 793,-330 -99,-66 -364,-232 -661,-99 -331,99 -1487,528 -2049,661 -694,165 -1950,99 -2678,-66 -330,-67 -462,-199 -99,-331 1025,-330 1752,-595 2578,-892 199,-66 827,-232 1124,-331 -99,-99 -330,-264 -661,-198 -297,99 -826,231 -1388,363 -760,166 -1620,133 -2446,-66 -363,-99 -529,-231 -165,-363 1157,-298 1917,-595 3007,-860 -33,-66 -165,-165 -462,-132 -364,33 -1025,265 -1785,232 -463,0 -1058,-133 -1653,-364 -231,-99 -396,-264 0,-297 1025,-133 1488,-265 2083,-364 264,-33 462,-66 495,-66 -66,-66 -198,-198 -462,-198 -331,0 -827,132 -1421,66 -331,0 -893,-166 -1389,-430 -297,-132 -396,-297 -33,-297 463,-34 1355,-100 1686,-100 132,0 363,0 430,0 -33,-33 -166,-231 -463,-264 -364,0 -926,0 -1355,-33 -265,-66 -496,-99 -992,-496 -264,-198 -396,-363 -33,-363 463,33 860,33 1190,33 165,0 463,33 496,33 0,-33 -99,-166 -364,-232 -330,-33 -694,-33 -1123,-165 -265,-99 -463,-231 -662,-397 -264,-231 -264,-363 133,-330 628,99 396,66 727,132 165,33 463,99 496,99 0,-66 -100,-198 -331,-231 -330,-99 -297,-66 -727,-198 -198,-66 -430,-232 -595,-430 -264,-231 -297,-331 -33,-264 364,66 760,231 1091,330 -199,-165 -265,-297 -628,-463 -397,-165 -628,-396 -727,-694 0,-99 -100,-496 -232,-859 -66,-331 -198,-628 -198,-694 -33,-66 0,-132 33,-132l0 0 0 0z"/>
  </g>
 </g>
</svg>
